# xmcd
#
# Track frame offsets:
#	150
#	15307
#	31087
#	48189
#	65409
#	80484
#	91244
#	105104
#	118147
#	134415
#
# Disc length: 2012 seconds
#
# Revision: 0
# Processed by: cddbd v1.4PL0 Copyright (c) Steve Scherf et al.
# Submitted via: EasyCDDAExtractor 4.6.9.1
#
DISCID=6e07da0a
DTITLE=Emmylou Harris - Profile II - Best Of Emmylou Harris
DYEAR=1984
DGENRE=Country
TTITLE0=Blue Kentucky Girl
TTITLE1=Wayfaring Stranger
TTITLE2=Beneath Still Waters
TTITLE3=Born To Run
TTITLE4=Someone Like You
TTITLE5=Mister Sandman
TTITLE6=Pledgin My Love
TTITLE7=I'm Movin' On
TTITLE8=(Lost His Love) On Our Last Date
TTITLE9=Save the last Dance For Me
EXTD=
EXTT0=
EXTT1=
EXTT2=
EXTT3=
EXTT4=
EXTT5=
EXTT6=
EXTT7=
EXTT8=
EXTT9=
PLAYORDER=
